<svg width="8" height="8" viewBox="0 0 8 8" fill="none" xmlns="http://www.w3.org/2000/svg">
<path opacity="0.4" d="M7.90756 4.70497L7.26256 4.33247C7.32756 3.98045 7.32756 3.6195 7.26256 3.26747L7.90756 2.89497C7.94359 2.87438 7.97145 2.84203 7.98647 2.80334C8.00149 2.76466 8.00275 2.72198 7.99006 2.68247C7.82386 2.14824 7.54027 1.65793 7.16006 1.24747C7.1321 1.21696 7.09459 1.19687 7.0537 1.19051C7.01281 1.18415 6.97097 1.19189 6.93506 1.21247L6.29006 1.58497C6.01761 1.35269 5.70497 1.17222 5.36756 1.05247V0.307474C5.36753 0.266095 5.35339 0.225964 5.32748 0.193697C5.30158 0.16143 5.26545 0.138954 5.22506 0.129973C4.6802 0.00745676 4.11493 0.00745676 3.57006 0.129973C3.52967 0.138954 3.49354 0.16143 3.46764 0.193697C3.44173 0.225964 3.4276 0.266095 3.42756 0.307474V1.05247C3.09016 1.17222 2.77751 1.35269 2.50506 1.58497L1.86006 1.21247C1.82413 1.19198 1.78231 1.18429 1.74144 1.19065C1.70057 1.19701 1.66307 1.21704 1.63506 1.24747C1.25486 1.65793 0.971267 2.14824 0.805061 2.68247C0.792976 2.72201 0.794541 2.76447 0.809505 2.80301C0.824469 2.84156 0.851961 2.87395 0.887561 2.89497L1.53256 3.26747C1.46756 3.6195 1.46756 3.98045 1.53256 4.33247L0.887561 4.70497C0.851533 4.72557 0.823676 4.75792 0.808656 4.7966C0.793637 4.83529 0.792368 4.87796 0.805061 4.91747C0.971848 5.45146 1.25537 5.94164 1.63506 6.35247C1.66302 6.38299 1.70053 6.40308 1.74142 6.40944C1.78232 6.4158 1.82416 6.40805 1.86006 6.38747L2.50506 6.01497C2.77751 6.24725 3.09016 6.42772 3.42756 6.54747V7.29247C3.4276 7.33385 3.44173 7.37398 3.46764 7.40625C3.49354 7.43852 3.52967 7.46099 3.57006 7.46997C4.11493 7.59249 4.6802 7.59249 5.22506 7.46997C5.26545 7.46099 5.30158 7.43852 5.32748 7.40625C5.35339 7.37398 5.36753 7.33385 5.36756 7.29247V6.54747C5.70497 6.42772 6.01761 6.24725 6.29006 6.01497L6.93506 6.38747C6.97099 6.40796 7.01281 6.41566 7.05368 6.4093C7.09455 6.40294 7.13205 6.38291 7.16006 6.35247C7.54027 5.94201 7.82386 5.45171 7.99006 4.91747C8.00215 4.87793 8.00058 4.83548 7.98562 4.79693C7.97065 4.75839 7.94316 4.726 7.90756 4.70497ZM4.40006 5.01247C4.16025 5.01247 3.92583 4.94136 3.72643 4.80813C3.52704 4.6749 3.37163 4.48553 3.27986 4.26398C3.18809 4.04242 3.16407 3.79863 3.21086 3.56343C3.25764 3.32822 3.37312 3.11218 3.54269 2.94261C3.71227 2.77304 3.92831 2.65756 4.16351 2.61077C4.39872 2.56399 4.64251 2.588 4.86406 2.67977C5.08562 2.77154 5.27499 2.92695 5.40822 3.12634C5.54145 3.32574 5.61256 3.56016 5.61256 3.79997C5.61223 4.12145 5.48438 4.42966 5.25706 4.65698C5.02975 4.88429 4.72153 5.01214 4.40006 5.01247Z" fill="#213F7D"/>
</svg>
