<svg width="7" height="5" viewBox="0 0 7 5" fill="none" xmlns="http://www.w3.org/2000/svg">
<path opacity="0.4" d="M6.91499 0.989979C6.96962 1.04638 6.99996 1.12196 6.9995 1.20049C6.99903 1.27902 6.96779 1.35423 6.91249 1.40998L3.37999 4.91498C3.35228 4.94245 3.31942 4.96418 3.28329 4.97893C3.24717 4.99368 3.20849 5.00115 3.16947 5.00092C3.13045 5.00069 3.09186 4.99275 3.05591 4.97758C3.01997 4.9624 2.98737 4.94028 2.95999 4.91248L0.917487 2.85498C0.890015 2.82727 0.868283 2.79441 0.853535 2.75829C0.838788 2.72216 0.831316 2.68348 0.831548 2.64446C0.83178 2.60544 0.839713 2.56685 0.854889 2.53091C0.870065 2.49496 0.892187 2.46236 0.919987 2.43498L1.62249 1.73748C1.6502 1.71001 1.68306 1.68827 1.71918 1.67353C1.75531 1.65878 1.79399 1.65131 1.83301 1.65154C1.87203 1.65177 1.91061 1.6597 1.94656 1.67488C1.98251 1.69006 2.01511 1.71218 2.04249 1.73998L3.17999 2.88498L5.79999 0.284979C5.8277 0.257507 5.86056 0.235774 5.89668 0.221027C5.93281 0.20628 5.97149 0.198809 6.01051 0.199041C6.04953 0.199273 6.08811 0.207205 6.12406 0.222381C6.16001 0.237557 6.19261 0.259679 6.21999 0.287479L6.91499 0.989979Z" fill="#213F7D"/>
</svg>
