<svg width="13" height="13" viewBox="0 0 13 13" fill="none" xmlns="http://www.w3.org/2000/svg">
<path opacity="0.4" d="M12.6 2.4V9.6H6.59995C6.49386 9.6 6.39212 9.64214 6.31711 9.71716C6.24209 9.79217 6.19995 9.89391 6.19995 10V10.8C6.19995 11.3304 5.98924 11.8391 5.61416 12.2142C5.23909 12.5893 4.73038 12.8 4.19995 12.8C3.66952 12.8 3.16081 12.5893 2.78574 12.2142C2.41066 11.8391 2.19995 11.3304 2.19995 10.8V1.625C2.19995 1.19402 2.02875 0.780698 1.724 0.475951C1.41925 0.171205 1.00593 0 0.574951 0L10.2 0C10.8363 0.000661796 11.4463 0.253731 11.8963 0.703675C12.3462 1.15362 12.5993 1.76368 12.6 2.4Z" fill="#213F7D"/>
</svg>
